<?xml version="1.0" standalone="no"?>
<!DOCTYPE svg PUBLIC "-//W3C//DTD SVG 20010904//EN"
 "http://www.w3.org/TR/2001/REC-SVG-20010904/DTD/svg10.dtd">
<svg version="1.0" xmlns="http://www.w3.org/2000/svg"
 width="260.000000pt" height="260.000000pt" viewBox="0 0 260.000000 260.000000"
 preserveAspectRatio="xMidYMid meet">
<metadata>
Created by potrace 1.11, written by Peter Selinger 2001-2013
</metadata>
<g transform="translate(0.000000,260.000000) scale(0.100000,-0.100000)"
fill="#000000" stroke="none">
<path d="M0 1300 l0 -1300 1300 0 1300 0 0 1300 0 1300 -1300 0 -1300 0 0
-1300z m2475 1168 c3 -3 7 -535 8 -1182 l2 -1176 -1182 0 -1183 0 0 88 c-3
1106 1 2267 9 2271 12 8 2339 7 2346 -1z"/>
<path d="M1766 1626 c-35 -12 -89 -41 -120 -64 -31 -24 -57 -39 -57 -35 -1 4
-1 27 0 50 0 23 -4 45 -9 48 -18 11 -121 9 -128 -2 -10 -15 -8 -736 2 -751 8
-14 113 -17 134 -3 10 6 13 64 14 265 l1 258 39 36 c91 85 162 113 244 97 53
-9 90 -41 113 -96 19 -44 21 -67 21 -302 0 -223 2 -256 16 -261 22 -8 117 -7
131 2 13 8 12 521 -1 577 -37 157 -222 241 -400 181z"/>
<path d="M454 1632 c-29 -4 -30 -12 -28 -307 2 -280 11 -325 76 -394 54 -58
108 -76 223 -76 90 0 106 3 155 28 30 16 72 41 92 58 20 16 39 29 42 29 3 0 4
-19 3 -43 0 -23 2 -48 6 -55 8 -12 76 -16 114 -6 l23 6 -1 367 c0 201 -4 372
-8 380 -12 19 -129 20 -141 1 -4 -7 -8 -127 -8 -266 l-1 -253 -43 -40 c-69
-64 -133 -95 -199 -95 -71 0 -116 25 -149 84 -24 44 -24 49 -26 308 -1 145 -3
265 -5 267 -6 5 -101 11 -125 7z"/>
</g>
</svg>
